<svg width="28" height="28" viewBox="0 0 28 28" fill="none" xmlns="http://www.w3.org/2000/svg">
<rect width="28" height="28" rx="8" fill="#062A4F"/>
<path d="M14.1523 15.1934H15.7637C15.7207 15.7637 15.5625 16.2695 15.2891 16.7109C15.0156 17.1484 14.6348 17.4922 14.1465 17.7422C13.6582 17.9922 13.0664 18.1172 12.3711 18.1172C11.8359 18.1172 11.3535 18.0234 10.9238 17.8359C10.498 17.6445 10.1328 17.373 9.82812 17.0215C9.52734 16.666 9.29688 16.2402 9.13672 15.7441C8.97656 15.2441 8.89648 14.6836 8.89648 14.0625V13.4121C8.89648 12.791 8.97852 12.2305 9.14258 11.7305C9.30664 11.2305 9.54102 10.8047 9.8457 10.4531C10.1543 10.0977 10.5234 9.82422 10.9531 9.63281C11.3867 9.44141 11.8711 9.3457 12.4062 9.3457C13.1016 9.3457 13.6895 9.47461 14.1699 9.73242C14.6504 9.98633 15.0234 10.3359 15.2891 10.7812C15.5547 11.2266 15.7148 11.7383 15.7695 12.3164H14.1582C14.127 11.957 14.0488 11.6523 13.9238 11.4023C13.8027 11.1523 13.6191 10.9629 13.373 10.834C13.1309 10.7012 12.8086 10.6348 12.4062 10.6348C12.0938 10.6348 11.8184 10.6934 11.5801 10.8105C11.3457 10.9277 11.1504 11.1035 10.9941 11.3379C10.8379 11.5684 10.7207 11.8574 10.6426 12.2051C10.5645 12.5488 10.5254 12.9473 10.5254 13.4004V14.0625C10.5254 14.4961 10.5605 14.8848 10.6309 15.2285C10.7012 15.5723 10.8105 15.8633 10.959 16.1016C11.1074 16.3398 11.2988 16.5215 11.5332 16.6465C11.7676 16.7715 12.0469 16.834 12.3711 16.834C12.7656 16.834 13.0859 16.7715 13.332 16.6465C13.582 16.5215 13.7715 16.3379 13.9004 16.0957C14.0332 15.8535 14.1172 15.5527 14.1523 15.1934ZM18.7285 9.46875V18H17.1172V9.46875H18.7285Z" fill="white"/>
</svg>
