<svg width="30" height="30" viewBox="0 0 30 30" fill="none" xmlns="http://www.w3.org/2000/svg">
<path d="M14.7549 1.75H15.2451C17.4588 1.75 19.1373 1.75013 20.4746 1.85938C21.824 1.96962 22.8484 2.19252 23.7451 2.64941C25.2975 3.44037 26.5596 4.70253 27.3506 6.25488C27.8074 7.15167 28.0303 8.17606 28.1406 9.52539C28.2498 10.8627 28.25 12.5412 28.25 14.7549V15.2451C28.25 17.4588 28.2498 19.1373 28.1406 20.4746C28.0303 21.824 27.8074 22.8483 27.3506 23.7451C26.5596 25.2975 25.2975 26.5596 23.7451 27.3506C22.8483 27.8074 21.824 28.0303 20.4746 28.1406C19.1373 28.2498 17.4588 28.25 15.2451 28.25H14.7549C12.5412 28.25 10.8627 28.2498 9.52539 28.1406C8.17606 28.0303 7.15167 27.8074 6.25488 27.3506C4.70253 26.5596 3.44037 25.2975 2.64941 23.7451C2.19252 22.8484 1.96962 21.824 1.85938 20.4746C1.75013 19.1373 1.75 17.4588 1.75 15.2451V14.7549L1.75195 13.1914C1.75723 11.723 1.77745 10.5283 1.85938 9.52539C1.96962 8.17608 2.19252 7.15165 2.64941 6.25488C3.44037 4.70254 4.70254 3.44037 6.25488 2.64941C7.15165 2.19252 8.17608 1.96962 9.52539 1.85938C10.5283 1.77745 11.723 1.75723 13.1914 1.75195L14.7549 1.75Z" fill="#E0F2FE" stroke="#3FAEFF" stroke-width="1.5"/>
<path d="M15 22C18.866 22 22 18.866 22 15C22 11.134 18.866 8 15 8C11.134 8 8 11.134 8 15C8 18.866 11.134 22 15 22Z" stroke="#3FAEFF" stroke-width="1.5"/>
<path d="M15 10V15L18 17" stroke="#3FAEFF" stroke-width="1.5" stroke-linecap="round" stroke-linejoin="round"/>
</svg>
