<svg width="30" height="30" viewBox="0 0 30 30" fill="none" xmlns="http://www.w3.org/2000/svg">
<path d="M15.3574 1.6377C17.571 1.63769 19.2497 1.63783 20.5869 1.74707C21.9363 1.85732 22.9607 2.08022 23.8574 2.53711C25.4098 3.32806 26.6719 4.59023 27.4629 6.14258C27.9197 7.03936 28.1426 8.06376 28.2529 9.41309C28.3622 10.7504 28.3623 12.4289 28.3623 14.6426V15.1328C28.3623 17.3465 28.3622 19.025 28.2529 20.3623C28.1426 21.7117 27.9197 22.736 27.4629 23.6328C26.6719 25.1852 25.4098 26.4473 23.8574 27.2383C22.9606 27.6951 21.9363 27.918 20.5869 28.0283C19.2496 28.1375 17.5711 28.1377 15.3574 28.1377H14.8672C12.6535 28.1377 10.975 28.1375 9.6377 28.0283C8.28837 27.918 7.26397 27.6951 6.36719 27.2383C4.81483 26.4473 3.55267 25.1852 2.76172 23.6328C2.30483 22.7361 2.08193 21.7117 1.97168 20.3623C1.86244 19.025 1.8623 17.3465 1.8623 15.1328V14.6426C1.8623 12.4289 1.86244 10.7504 1.97168 9.41309C2.08193 8.06377 2.30483 7.03935 2.76172 6.14258C3.55267 4.59024 4.81485 3.32806 6.36719 2.53711C7.26396 2.08022 8.28838 1.85732 9.6377 1.74707C10.975 1.63783 12.6536 1.63769 14.8672 1.6377H15.3574Z" fill="#FEF3C7" stroke="#EAB308" stroke-width="1.5"/>
</svg>
